<mxfile host="app.diagrams.net" modified="2023-10-06T09:45:52.300Z" agent="Mozilla/5.0 (Windows NT 10.0; Win64; x64) AppleWebKit/537.36 (KHTML, like Gecko) Chrome/117.0.0.0 Safari/537.36 Edg/117.0.2045.47" version="21.6.9" etag="0frxJh5Kn9OS3Soy20eb" type="github">
  <diagram name="Page-1" id="W9g8ZL2G6DjQNR9luLZu">
    <mxGraphModel>
      <root>
        <mxCell id="0" />
        <mxCell id="1" parent="0" />
      </root>
    </mxGraphModel>
  </diagram>
</mxfile>
